<svg version="1.1" xmlns="http://www.w3.org/2000/svg" xmlns:xlink="http://www.w3.org/1999/xlink" width="186.41238" height="37.46302" viewBox="0,0,186.41238,37.46302"><g transform="translate(-146.79381,-161.26849)"><g data-paper-data="{&quot;isPaintingLayer&quot;:true}" fill-rule="nonzero" stroke="none" stroke-linecap="butt" stroke-linejoin="miter" stroke-miterlimit="10" stroke-dasharray="" stroke-dashoffset="0" style="mix-blend-mode: normal"><path d="M150.79381,198.73151c-2.20914,0 -4,-1.79086 -4,-4v-29.46302c0,-2.20914 1.79086,-4 4,-4h178.41238c2.20914,0 4,1.79086 4,4v29.46302c0,2.20914 -1.79086,4 -4,4z" fill-opacity="0.74902" fill="#000000" stroke-width="0"/><g stroke-width="1" font-family="Archivo Black" font-weight="normal" font-size="40" text-anchor="start"><text transform="translate(204.28,188.68542) scale(0.5,0.5)" font-size="40" xml:space="preserve" fill="#000000" fill-rule="nonzero" stroke="none" stroke-width="1" stroke-linecap="butt" stroke-linejoin="miter" stroke-miterlimit="10" stroke-dasharray="" stroke-dashoffset="0" font-family="Archivo Black" font-weight="normal" text-anchor="start" style="mix-blend-mode: normal"><tspan x="0" dy="0">Message</tspan></text><text transform="translate(204.28,186.43542) scale(0.5,0.5)" font-size="40" xml:space="preserve" fill="#ffffff" fill-rule="nonzero" stroke="none" stroke-width="1" stroke-linecap="butt" stroke-linejoin="miter" stroke-miterlimit="10" stroke-dasharray="" stroke-dashoffset="0" font-family="Archivo Black" font-weight="normal" text-anchor="start" style="mix-blend-mode: normal"><tspan x="0" dy="0">Message</tspan></text></g><path d="M156.91239,171.99259c-0.07681,-0.26114 -0.06912,-0.51461 0.02305,-0.7604c0.09217,-0.24579 0.24578,-0.45317 0.46084,-0.62214l0.69128,-0.29955l6.86664,-0.82953c0.38404,-0.04609 0.72199,0.04609 1.01386,0.27651c0.30723,0.23042 0.48389,0.53766 0.52998,0.92169c0.03072,0.38404 -0.06913,0.722 -0.29955,1.01387c-0.23042,0.30723 -0.53766,0.48389 -0.92169,0.52997l-0.96778,0.11521c4.99252,2.78045 7.66544,6.1216 8.01875,10.02344c0.07681,0.62983 -0.07681,1.1982 -0.46085,1.70514c-0.38404,0.50693 -0.89097,0.7988 -1.52079,0.87561c-0.62983,0.07681 -1.19821,-0.07681 -1.70514,-0.46085c-0.50693,-0.38404 -0.79881,-0.89097 -0.87561,-1.5208c-0.5223,-2.81117 -2.91102,-5.26902 -7.16618,-7.37357l0.29955,1.19821c0.07681,0.36868 0.01536,0.722 -0.18434,1.05995c-0.1997,0.3226 -0.48388,0.52997 -0.85256,0.62214c-0.36868,0.07681 -0.71431,0.01536 -1.03691,-0.18434c-0.33795,-0.1997 -0.54534,-0.48389 -0.62214,-0.85257l-1.29038,-5.43801M182.69684,182.82252c1.29038,0.7988 1.87411,1.65137 1.75122,2.5577c0.12289,0.87561 -0.46085,1.7205 -1.75122,2.53467l-11.54424,7.23531c-1.95093,1.21356 -3.90184,1.21356 -5.85277,0h-0.02304l-7.1201,-4.49327h0.02304c-1.30573,-0.7988 -1.89715,-1.64369 -1.77426,-2.53466c-0.06144,-0.47621 0.07681,-0.92937 0.41476,-1.3595c-0.33795,-0.36868 -0.50693,-0.76808 -0.50693,-1.19821c-0.26114,-0.86025 0.19202,-1.77427 1.3595,-2.74205l0.02304,-0.02304l5.06933,-4.33197c0.82952,0.58374 1.52848,1.19821 2.09686,1.84339l-5.39193,4.60848l-0.36867,0.23042l0.4378,0.11521l0.04609,0.02304l0.02304,0.02304l0.11522,0.02304l7.51182,3.34115h0.02304c1.05995,0.44548 2.02004,0.29955 2.88029,-0.43781v0.02304l8.11093,-6.91272l0.20738,-0.20738l2.02773,-1.72818l0.4378,-0.29955c-0.10753,0.01536 -0.26115,-0.02304 -0.46085,-0.11521h-0.02304l-7.71921,-3.41028h0.02305l-2.02774,-0.06913c-0.61446,-0.69127 -1.3211,-1.3595 -2.1199,-2.00469c1.5976,-1.10603 3.34115,-1.25965 5.23063,-0.46085h0.02304l7.7192,3.41027h-0.02304c1.39791,0.5991 2.09686,1.35182 2.09686,2.25816c0.24579,0.86025 -0.20738,1.78963 -1.3595,2.78813l-0.71431,0.5991l1.12908,0.71431" fill="#000000" stroke-width="1"/><path d="M156.90639,169.88386c-0.07681,-0.26114 -0.06913,-0.51461 0.02304,-0.7604c0.09217,-0.24579 0.24579,-0.45317 0.46085,-0.62215l0.69127,-0.29955l6.86664,-0.82953c0.38404,-0.04609 0.722,0.04609 1.01387,0.27651c0.30723,0.23042 0.48389,0.53766 0.52998,0.92169c0.03072,0.38404 -0.06913,0.722 -0.29956,1.01387c-0.23042,0.30723 -0.53766,0.48389 -0.92169,0.52998l-0.96778,0.11521c4.99252,2.78045 7.66544,6.1216 8.01875,10.02345c0.07681,0.62983 -0.07681,1.1982 -0.46085,1.70513c-0.38404,0.50693 -0.89097,0.7988 -1.52079,0.87561c-0.62983,0.07681 -1.19821,-0.0768 -1.70514,-0.46084c-0.50693,-0.38404 -0.7988,-0.89097 -0.87561,-1.5208c-0.5223,-2.81117 -2.91102,-5.26902 -7.16619,-7.37357l0.29955,1.19821c0.07681,0.36868 0.01536,0.722 -0.18434,1.05995c-0.1997,0.3226 -0.48388,0.52997 -0.85256,0.62214c-0.36868,0.07681 -0.71431,0.01536 -1.03691,-0.18434c-0.33795,-0.1997 -0.54534,-0.48389 -0.62214,-0.85257l-1.29038,-5.438M182.69083,180.71378c1.29038,0.7988 1.87411,1.65137 1.75122,2.5577c0.12289,0.87561 -0.46084,1.7205 -1.75122,2.53466l-11.54424,7.23531c-1.95093,1.21356 -3.90184,1.21356 -5.85277,0h-0.02305l-7.1201,-4.49327h0.02304c-1.30573,-0.7988 -1.89716,-1.64369 -1.77427,-2.53466c-0.06144,-0.47621 0.07681,-0.92937 0.41476,-1.3595c-0.33795,-0.36868 -0.50693,-0.76808 -0.50693,-1.19821c-0.26114,-0.86025 0.19202,-1.77426 1.3595,-2.74204l0.02304,-0.02304l5.06932,-4.33197c0.82952,0.58374 1.52848,1.19821 2.09686,1.84339l-5.39193,4.60848l-0.36867,0.23042l0.4378,0.11521l0.04609,0.02304l0.02304,0.02304l0.11521,0.02304l7.51182,3.34115h0.02304c1.05995,0.44548 2.02005,0.29955 2.8803,-0.4378v0.02304l8.11092,-6.91272l0.20739,-0.20738l2.02773,-1.72818l0.4378,-0.29955c-0.10753,0.01536 -0.26115,-0.02304 -0.46085,-0.11521h-0.02304l-7.7192,-3.41028h0.02304l-2.02774,-0.06913c-0.61446,-0.69127 -1.3211,-1.3595 -2.1199,-2.00469c1.5976,-1.10603 3.34115,-1.25965 5.23063,-0.46085h0.02304l7.7192,3.41028h-0.02304c1.39791,0.5991 2.09686,1.35182 2.09686,2.25815c0.24579,0.86025 -0.20739,1.78963 -1.35951,2.78813l-0.71431,0.5991l1.12908,0.71432" fill="#ffffff" stroke-width="1"/></g></g></svg>